<?xml version="1.0" standalone="no"?>
<!DOCTYPE svg PUBLIC "-//W3C//DTD SVG 20010904//EN"
        "http://www.w3.org/TR/2001/REC-SVG-20010904/DTD/svg10.dtd">
<svg version="1.0" xmlns="http://www.w3.org/2000/svg"
     width="500.000000pt" height="500.000000pt" viewBox="0 0 500.000000 500.000000"
     preserveAspectRatio="xMidYMid meet">
    <metadata>
        Created by potrace 1.11, written by Peter Selinger 2001-2013
    </metadata>
    <g transform="translate(0.000000,500.000000) scale(0.100000,-0.100000)"
       fill="#000000" stroke="none">
        <path d="M2829 4836 c-2 -2 -24 -6 -49 -9 -25 -2 -108 -19 -185 -38 -107 -25
-163 -33 -235 -33 -90 0 -215 10 -263 20 -44 10 -213 6 -257 -6 -117 -31 -195
-90 -343 -259 -56 -64 -115 -129 -132 -144 -38 -35 -139 -103 -230 -152 -280
-154 -354 -261 -379 -545 -4 -36 -8 -90 -11 -121 -13 -149 -34 -219 -123 -410
-57 -122 -84 -213 -88 -295 -5 -118 26 -202 141 -394 95 -157 123 -223 151
-356 43 -201 64 -276 95 -339 63 -129 149 -192 409 -300 153 -64 191 -89 335
-219 170 -154 216 -186 315 -217 82 -25 201 -27 295 -5 11 3 67 17 125 31 115
28 184 39 245 38 46 0 190 -13 220 -20 11 -2 71 -6 133 -7 219 -7 300 37 514
279 135 153 167 179 356 287 241 138 332 243 358 416 3 21 7 48 9 61 2 12 7
60 10 105 17 219 25 251 115 456 149 338 145 418 -33 718 -98 165 -103 174
-125 243 -18 58 -43 164 -57 244 -20 120 -76 250 -134 313 -69 74 -130 111
-329 195 -140 60 -195 91 -252 140 -42 36 -187 166 -209 187 -38 36 -132 90
-192 110 -55 19 -189 36 -200 26z m185 -107 c67 -25 125 -66 236 -168 179
-165 196 -175 406 -267 79 -34 165 -74 191 -90 67 -39 126 -102 157 -168 27
-56 36 -92 91 -337 29 -128 61 -204 154 -357 170 -279 172 -350 26 -667 -47
-101 -82 -198 -89 -250 -4 -23 -8 -51 -11 -64 -2 -13 -7 -63 -10 -110 -21
-296 -77 -408 -255 -509 -310 -176 -314 -179 -470 -362 -212 -249 -275 -270
-665 -224 -121 15 -235 7 -347 -21 -224 -59 -364 -66 -455 -26 -71 31 -123 70
-237 175 -160 147 -206 177 -381 251 -169 71 -233 106 -286 157 -74 72 -103
138 -139 318 -50 246 -67 291 -186 487 -129 214 -153 313 -108 455 13 40 28
82 33 93 128 269 148 337 166 580 13 172 31 243 83 319 45 68 104 113 270 207
182 103 244 154 370 305 83 99 169 176 232 207 61 30 70 32 180 32 63 0 142
-4 175 -8 130 -19 305 -16 390 5 44 11 89 21 100 24 11 2 52 10 90 19 128 27
207 25 289 -6z"/>
        <path d="M1999 3598 c-1 -2 -2 -310 -3 -686 l-1 -682 60 -1 c186 -3 526 1 560
6 297 45 493 239 546 539 18 108 7 282 -26 386 -26 81 -85 186 -136 241 -61
66 -186 143 -264 164 -16 5 -34 9 -40 11 -56 16 -164 23 -407 23 -159 1 -288
0 -289 -1z m611 -248 c184 -51 290 -208 291 -430 0 -209 -93 -370 -250 -432
-49 -19 -77 -21 -221 -22 l-165 -1 -2 430 c-1 237 0 439 2 451 4 19 10 20 152
19 83 -1 168 -8 193 -15z"/>
        <path d="M1079 602 c-1 -11 -1 -163 0 -197 l1 -30 65 5 c76 6 103 27 115 88 8
47 -10 101 -42 121 -23 14 -137 25 -139 13z m138 -46 c29 -34 30 -88 2 -127
-18 -25 -27 -29 -70 -29 l-49 0 0 88 c0 49 2 91 5 94 3 3 24 4 47 3 31 -2 48
-10 65 -29z"/>
        <path d="M1453 601 c-4 -3 -8 -54 -8 -114 0 -121 -10 -108 90 -108 65 0 67 0
60 12 -4 6 -26 10 -49 9 -79 -3 -77 -4 -74 43 l3 42 53 0 c31 -1 52 3 52 10 0
7 -21 11 -55 10 l-55 -2 0 42 0 42 56 -1 c30 -1 61 2 67 6 7 4 10 8 7 9 -18 5
-140 5 -147 0z"/>
        <path d="M1770 595 c0 -7 24 -10 70 -10 39 1 70 -1 70 -5 0 -4 -10 -18 -22
-32 -60 -66 -131 -158 -127 -163 4 -3 117 -7 167 -6 13 1 21 5 18 10 -3 5 -36
9 -72 10 -37 0 -69 3 -71 5 -3 2 2 12 10 23 9 10 38 45 65 78 85 104 85 101
-19 101 -59 0 -89 -3 -89 -11z"/>
        <path d="M2126 602 c-11 -18 -4 -222 8 -222 8 0 11 32 10 110 -1 106 -5 132
-18 112z"/>
        <path d="M2367 580 c-79 -70 -29 -205 74 -202 17 0 37 6 42 11 15 15 30 14 21
0 -4 -7 -1 -10 7 -7 9 3 14 22 15 56 l1 52 -33 0 c-18 0 -36 -4 -39 -10 -4 -6
7 -10 25 -10 25 0 31 -3 26 -16 -3 -9 -6 -20 -6 -25 0 -6 -14 -16 -32 -23 -86
-37 -157 77 -94 150 29 34 90 39 112 10 7 -10 18 -15 23 -11 8 4 7 10 -2 19
-42 42 -97 44 -140 6z"/>
        <path d="M2710 496 c0 -66 4 -117 10 -121 11 -7 13 16 11 125 l-1 65 28 -34
c122 -152 141 -170 143 -138 2 61 -1 211 -6 215 -13 13 -17 -13 -16 -93 2 -81
-9 -111 -24 -65 -3 11 -9 20 -13 20 -4 0 -32 32 -62 70 -29 39 -58 70 -62 70
-4 0 -8 -51 -8 -114z"/>
        <path d="M3099 585 c-1 -33 -1 -148 0 -180 l1 -30 67 3 c75 4 103 20 103 59 0
12 -9 32 -19 42 -17 17 -18 21 -5 32 18 15 18 50 0 75 -12 15 -27 19 -80 19
-60 1 -66 -1 -67 -20z m125 -5 c2 -3 7 -17 11 -32 8 -33 -16 -49 -74 -46 -40
1 -41 2 -41 38 0 20 2 39 5 42 7 7 92 4 99 -2z m14 -117 c31 -43 -10 -69 -100
-64 -14 1 -18 10 -18 39 0 21 2 41 5 43 11 12 101 -2 113 -18z"/>
        <path d="M3492 590 c-53 -32 -69 -99 -38 -159 32 -61 109 -73 158 -24 56 56
45 153 -22 188 -39 20 -58 19 -98 -5z m91 -15 c28 -12 50 -63 43 -100 -14 -71
-85 -99 -137 -54 -19 17 -24 30 -24 71 0 42 4 53 27 73 26 23 53 26 91 10z"/>
        <path d="M3810 604 c0 -4 15 -25 33 -48 52 -64 52 -62 8 -121 -28 -38 -37 -55
-27 -55 9 0 24 12 33 27 23 36 46 63 53 63 3 0 19 -21 35 -45 17 -25 36 -45
44 -45 9 0 10 4 4 13 -5 6 -24 31 -42 55 l-33 42 42 56 c23 31 39 58 36 61 -5
5 -14 -4 -68 -70 l-23 -28 -39 50 c-34 46 -56 63 -56 45z"/>
    </g>
</svg>
